#define tapaboca_20_2__width 32
#define tapaboca_20_2__height 32
const unsigned char mascarilla_bits[] PROGMEM= {
   0x00, 0x00, 0x00, 0x00, 0x00, 0x00, 0x00, 0x00, 0x00, 0x00, 0x00, 0x00,
   0x00, 0x00, 0x00, 0x00, 0x00, 0x80, 0x01, 0x00, 0x00, 0x60, 0x06, 0x00,
   0x1c, 0x10, 0x08, 0x30, 0x22, 0x08, 0x10, 0x40, 0x41, 0x04, 0x20, 0x82,
   0xbd, 0x03, 0xc0, 0xbd, 0x25, 0x01, 0x80, 0xa4, 0x45, 0x02, 0x40, 0xa2,
   0x4d, 0x00, 0x00, 0xb2, 0x4a, 0x00, 0x00, 0x52, 0x52, 0x00, 0x00, 0x4a,
   0x34, 0x00, 0x00, 0x2c, 0x0c, 0x00, 0x00, 0x30, 0x18, 0x00, 0x00, 0x18,
   0x30, 0x00, 0x00, 0x0c, 0x20, 0x00, 0x00, 0x04, 0x40, 0x00, 0x00, 0x02,
   0x40, 0x00, 0x00, 0x02, 0x80, 0x00, 0x00, 0x01, 0x00, 0x01, 0x80, 0x00,
   0x00, 0x00, 0x60, 0x00, 0x00, 0x0c, 0x30, 0x00, 0x00, 0x70, 0x0e, 0x00,
   0x00, 0x80, 0x01, 0x00, 0x00, 0x00, 0x00, 0x00, 0x00, 0x00, 0x00, 0x00,
   0x00, 0x00, 0x00, 0x00, 0x00, 0x00, 0x00, 0x00 };
